<svg xmlns="http://www.w3.org/2000/svg" viewBox="0 0 180 40" role="img" aria-label="Gradus">
  <path d="M0 8 V0 H8 M0 32 V40 H8 M52 0 H44 M52 8 V0" fill="none" stroke="#F5F5F5" stroke-width="1.5" stroke-linecap="square"/>
  <rect x="10" y="20" width="7" height="8" rx="1" fill="#F5F5F5"/>
  <rect x="19" y="14" width="7" height="14" rx="1" fill="#F5F5F5"/>
  <rect x="28" y="8" width="7" height="20" rx="1" fill="#F5F5F5"/>
  <rect x="29.25" y="9.25" width="4.5" height="5.25" fill="#1A1A2E"/>
  <rect x="29.25" y="15.25" width="4.5" height="7.25" fill="#1A1A2E"/>
  <line x1="29" y1="15" x2="34" y2="15" stroke="#1A1A2E" stroke-width="0.55"/>
  <line x1="29" y1="23" x2="34" y2="23" stroke="#1A1A2E" stroke-width="0.55"/>
  <path fill="#F5F5F5" d="M 29.28 15.15 H 30.18 C 30.38 15.15 30.38 15.26 30.38 15.34 V 20.66 C 30.38 20.74 30.38 20.85 30.18 20.85 H 29.28 V 20.48 H 29.85 C 29.98 20.48 29.98 20.39 29.98 20.31 V 15.69 C 29.98 15.53 29.98 15.53 29.85 15.53 H 29.28 Z"/>
  <text x="44" y="27" font-family="Segoe UI, system-ui, -apple-system, sans-serif" font-size="19" font-weight="700" letter-spacing="5" fill="#F5F5F5">GRADUS</text>
</svg>
